<svg xmlns="http://www.w3.org/2000/svg" version="1.1" xmlns:xlink="http://www.w3.org/1999/xlink" xmlns:svgjs="http://svgjs.com/svgjs" width="1600" height="900" preserveAspectRatio="none" viewBox="0 0 1600 900"><g mask="url(&quot;#SvgjsMask1058&quot;)" fill="none"><rect width="1600" height="900" x="0" y="0" fill="rgba(126, 156, 119, 1)"></rect><path d="M0,534.4C107.907,527.608,228.032,554.308,314.614,489.549C400.331,425.437,408.861,303.834,443.62,202.594C474.882,111.54,505.419,23.239,507.756,-73.004C510.464,-184.491,531.564,-313.042,458.183,-397.018C384.805,-480.99,249.171,-453.209,143.75,-489.568C31.376,-528.325,-62.681,-624.683,-181.339,-617.585C-309.442,-609.922,-452.842,-559.738,-519.221,-449.907C-585.504,-340.235,-516.204,-201.371,-510.252,-73.363C-505.558,27.588,-515.182,125.516,-487.942,222.836C-456.654,334.619,-438.974,468.353,-341.139,530.823C-243.311,593.289,-115.841,541.691,0,534.4" fill="#637f5d"></path><path d="M1600 1325.541C1707.728 1328.122 1813.711 1430.129 1911.234 1384.289 2007.2730000000001 1339.147 2023.33 1209.5810000000001 2059.187 1109.704 2092.3 1017.471 2134.966 921.604 2111.503 826.457 2088.7309999999998 734.115 1999.213 679.908 1935.733 609.086 1873.498 539.652 1833.059 436.885 1742.481 414.753 1652.088 392.666 1570.457 469.261 1482.029 498.228 1397.018 526.076 1304.6309999999999 528.547 1232.711 581.7429999999999 1149.899 642.995 1076.4389999999999 721.8720000000001 1046.443 820.4110000000001 1014.133 926.554 1014.651 1045.346 1060.887 1146.205 1107.096 1247.005 1192.987 1334.601 1298.205 1369.6019999999999 1396.666 1402.355 1496.264 1323.056 1600 1325.541" fill="#9cb397"></path></g><defs><mask id="SvgjsMask1058"><rect width="1600" height="900" fill="#ffffff"></rect></mask></defs></svg>